<?xml version="1.0" encoding="iso-8859-1"?>
<!-- Generator: Adobe Illustrator 19.0.0, SVG Export Plug-In . SVG Version: 6.00 Build 0)  -->
<svg version="1.1" id="Capa_1" xmlns="http://www.w3.org/2000/svg" xmlns:xlink="http://www.w3.org/1999/xlink" x="0px" y="0px"
	 viewBox="0 0 512 512" style="enable-background:new 0 0 512 512;" xml:space="preserve">
<path style="fill:#5BB599;" d="M483.283,91.664c0-16.086,12.765-29.183,28.717-29.733V45.084c0-20.334-16.484-36.819-36.819-36.819
	H109.219c0,16.436-13.324,29.759-29.76,29.759C63.024,38.024,49.7,24.701,49.7,8.265H36.611C16.276,8.265,0,24.749,0,45.084v348.199
	c16.436,0,29.551,13.324,29.551,29.759c0,16.436-13.115,29.759-29.551,29.759v14.114c0,20.335,16.276,36.819,36.611,36.819h358.034
	c0-16.436,13.324-29.76,29.76-29.76s29.759,13.324,29.759,29.76h21.017c20.335,0,36.819-16.484,36.819-36.819V121.397
	C496.048,120.846,483.283,107.75,483.283,91.664z"/>
<path style="fill:#4C9385;" d="M332.762,350.455H193.948c-10.555,0-19.111-8.556-19.111-19.111V192.53
	c0-10.555,8.556-19.111,19.111-19.111h138.814c10.555,0,19.111,8.556,19.111,19.111v138.814
	C351.873,341.899,343.317,350.455,332.762,350.455z"/>
<g>
	<path style="fill:#FFDC48;" d="M256.698,168.165c-1.361,1.532-2.112,3.509-2.112,5.558v21.915h16.74v-18.735l17.891-20.144
		l-12.516-11.116L256.698,168.165z"/>
	<path style="fill:#FFDC48;" d="M291.328,173.723v21.915h16.74v-13.545h95.121v-16.74H299.698
		C295.075,165.353,291.328,169.1,291.328,173.723z"/>
	<path style="fill:#FFDC48;" d="M217.844,345.341l-63.416,85.04c-1.078,1.445-1.66,3.201-1.66,5.003v68.35h16.74v-65.573
		l63.416-85.04c1.078-1.445,1.66-3.201,1.66-5.003v-21.915h-16.74V345.341z"/>
	<path style="fill:#FFDC48;" d="M254.586,347.241l-18.31,86.409c-0.121,0.57-0.182,1.152-0.182,1.735v68.35h16.74v-67.473
		l18.31-86.409c0.121-0.57,0.182-1.152,0.182-1.735v-21.915h-16.74L254.586,347.241L254.586,347.241z"/>
	<path style="fill:#FFDC48;" d="M308.068,346.225v-20.022h-16.74v21.915c0,1.246,0.278,2.476,0.814,3.601l40.78,85.559v66.457h16.74
		v-68.35c0-1.246-0.278-2.476-0.814-3.601L308.068,346.225z"/>
	<rect x="328.24" y="215.81" style="fill:#FFDC48;" width="183.76" height="16.74"/>
	<rect x="328.24" y="252.55" style="fill:#FFDC48;" width="183.76" height="16.74"/>
	<rect x="328.24" y="289.29" style="fill:#FFDC48;" width="183.76" height="16.74"/>
	<polygon style="fill:#FFDC48;" points="197.673,232.548 197.673,215.808 175.758,215.808 0,215.808 0,232.548 175.758,232.548 	"/>
	<polygon style="fill:#FFDC48;" points="197.673,269.29 197.673,252.551 175.758,252.551 0,252.551 0,269.29 175.758,269.29 	"/>
	<rect x="138.35" y="289.29" style="fill:#FFDC48;" width="59.32" height="16.74"/>
	<polygon style="fill:#FFDC48;" points="217.844,173.723 217.844,195.638 234.584,195.638 234.584,173.723 234.584,8.265 
		217.844,8.265 	"/>
	<path style="fill:#FFDC48;" d="M308.068,94.082V8.265h-16.74v83.153l-8.958,12.651l-11.044-13.053V8.265h-16.74v85.817
		c0,1.98,0.702,3.895,1.98,5.407l20.003,23.64c1.594,1.884,3.933,2.963,6.389,2.963c0.121,0,0.241-0.003,0.362-0.008
		c2.585-0.112,4.974-1.413,6.47-3.526l16.74-23.639C307.531,97.504,308.068,95.815,308.068,94.082z"/>
	<path style="fill:#FFDC48;" d="M374.662,102.452h28.527v-16.74h-20.157V8.265h-16.74v85.817
		C366.292,98.704,370.039,102.452,374.662,102.452z"/>
	<path style="fill:#FFDC48;" d="M155.372,94.082V8.265h-16.74v77.447H96.225v16.74h50.777
		C151.625,102.452,155.372,98.704,155.372,94.082z"/>
	<path style="fill:#FFDC48;" d="M154.374,171.904l39.714-73.859c0.655-1.218,0.998-2.58,0.998-3.964V8.265h-16.74v83.709
		L142,159.571H96.225v16.74h50.777C150.083,176.311,152.914,174.618,154.374,171.904z"/>
	<path style="fill:#FFDC48;" d="M299.698,142.831h39.497c4.623,0,8.37-3.747,8.37-8.37V8.265h-16.74v117.826h-31.128
		L299.698,142.831L299.698,142.831z"/>
	<path style="fill:#FFDC48;" d="M411.559,366.938v38.393h16.74v-30.024H512v-16.74h-92.071
		C415.306,358.569,411.559,362.315,411.559,366.938z"/>
	<rect x="384.92" y="326.2" style="fill:#FFDC48;" width="127.08" height="16.74"/>
	<rect y="289.29" style="fill:#FFDC48;" width="104.87" height="16.74"/>
	<rect x="71.12" y="438.81" style="fill:#FFDC48;" width="16.74" height="64.924"/>
	<rect y="85.71" style="fill:#FFDC48;" width="62.746" height="16.74"/>
	<rect y="162.16" style="fill:#FFDC48;" width="62.746" height="16.74"/>
	<path style="fill:#FFDC48;" d="M129.566,361.222l-49.729-35.196c-1.415-1-3.104-1.538-4.836-1.538H0v16.74h72.34l26.077,18.456H0
		v16.74h124.731c3.645,0,6.871-2.359,7.976-5.833C133.812,367.118,132.541,363.328,129.566,361.222z"/>
</g>
<g>
	<rect x="174.84" y="252.55" style="fill:#FFCE00;" width="22.836" height="16.74"/>
	<rect x="174.84" y="215.81" style="fill:#FFCE00;" width="22.836" height="16.74"/>
	<rect x="174.84" y="289.29" style="fill:#FFCE00;" width="22.836" height="16.74"/>
	<path style="fill:#FFCE00;" d="M308.068,182.093h40.691c-3.412-5.218-9.297-8.673-15.997-8.673h-41.418
		c-0.004,0.102-0.015,0.201-0.015,0.303v21.915h16.74L308.068,182.093L308.068,182.093z"/>
	<rect x="217.84" y="173.42" style="fill:#FFCE00;" width="16.74" height="22.22"/>
	<path style="fill:#FFCE00;" d="M254.586,195.638h16.74v-18.735l3.094-3.483H254.6c-0.004,0.101-0.014,0.202-0.014,0.303V195.638z"
		/>
	<path style="fill:#FFCE00;" d="M234.584,348.118v-21.915h-16.74v19.138l-3.813,5.113h20.2
		C234.452,349.699,234.584,348.915,234.584,348.118z"/>
	<rect x="328.24" y="215.81" style="fill:#FFCE00;" width="23.634" height="16.74"/>
	<rect x="328.24" y="289.29" style="fill:#FFCE00;" width="23.634" height="16.74"/>
	<rect x="328.24" y="252.55" style="fill:#FFCE00;" width="23.634" height="16.74"/>
	<path style="fill:#FFCE00;" d="M271.144,349.853c0.121-0.57,0.182-1.152,0.182-1.735v-21.915h-16.74v21.038l-0.681,3.214h17.111
		L271.144,349.853z"/>
	<path style="fill:#FFCE00;" d="M308.068,346.225v-20.022h-16.74v21.915c0,0.794,0.125,1.578,0.346,2.336h18.41L308.068,346.225z"/>
</g>
<path style="fill:#585A6A;" d="M317.161,330.557H209.55c-8.182,0-14.815-6.633-14.815-14.815v-107.61
	c0-8.182,6.633-14.815,14.815-14.815h107.611c8.182,0,14.815,6.633,14.815,14.815v107.611
	C331.976,323.925,325.343,330.557,317.161,330.557z"/>
<path style="fill:#4A4C5F;" d="M317.161,193.317h-29.745c8.182,0,14.815,6.633,14.815,14.815v107.611
	c0,8.182-6.633,14.815-14.815,14.815h29.745c8.182,0,14.815-6.633,14.815-14.815V208.132
	C331.976,199.95,325.343,193.317,317.161,193.317z"/>
<path style="fill:#6DE27B;" d="M263.206,291.532L263.206,291.532c-16.345,0-29.595-13.25-29.595-29.595l0,0
	c0-16.345,13.25-29.595,29.595-29.595l0,0c16.345,0,29.595,13.25,29.595,29.595l0,0
	C292.801,278.282,279.551,291.532,263.206,291.532z"/>
<g>
	<path style="fill:#EDEDED;" d="M79.485,119.191c-13.845,0-25.11-11.264-25.11-25.11s11.264-25.11,25.11-25.11
		s25.11,11.264,25.11,25.11S93.331,119.191,79.485,119.191z M79.485,85.712c-4.615,0-8.37,3.754-8.37,8.37
		c0,4.615,3.754,8.37,8.37,8.37c4.615,0,8.37-3.754,8.37-8.37C87.855,89.466,84.101,85.712,79.485,85.712z"/>
	<path style="fill:#EDEDED;" d="M79.485,193.05c-13.845,0-25.11-11.264-25.11-25.11s11.264-25.11,25.11-25.11
		s25.11,11.264,25.11,25.11S93.331,193.05,79.485,193.05z M79.485,159.571c-4.615,0-8.37,3.754-8.37,8.37s3.754,8.37,8.37,8.37
		c4.615,0,8.37-3.754,8.37-8.37S84.101,159.571,79.485,159.571z"/>
	<path style="fill:#EDEDED;" d="M282.959,159.571c-13.845,0-25.11-11.264-25.11-25.109s11.264-25.11,25.11-25.11
		c13.845,0,25.109,11.264,25.109,25.11S296.804,159.571,282.959,159.571z M282.959,126.091c-4.615,0-8.37,3.754-8.37,8.37
		c0,4.615,3.754,8.37,8.37,8.37c4.615,0,8.37-3.754,8.37-8.37C291.328,129.846,287.574,126.091,282.959,126.091z"/>
	<path style="fill:#EDEDED;" d="M419.929,198.832c-13.845,0-25.109-11.264-25.109-25.109c0-13.846,11.264-25.11,25.109-25.11
		s25.11,11.264,25.11,25.11C445.038,187.568,433.774,198.832,419.929,198.832z M419.929,165.353c-4.615,0-8.37,3.754-8.37,8.37
		c0,4.615,3.754,8.37,8.37,8.37c4.615,0,8.37-3.754,8.37-8.37C428.298,169.107,424.544,165.353,419.929,165.353z"/>
	<path style="fill:#EDEDED;" d="M79.485,447.181c-13.845,0-25.11-11.264-25.11-25.109s11.264-25.109,25.11-25.109
		s25.11,11.264,25.11,25.109S93.331,447.181,79.485,447.181z M79.485,413.702c-4.615,0-8.37,3.754-8.37,8.37s3.754,8.37,8.37,8.37
		c4.615,0,8.37-3.754,8.37-8.37S84.101,413.702,79.485,413.702z"/>
	<path style="fill:#EDEDED;" d="M141.47,393.164c-13.845,0-25.11-11.264-25.11-25.109s11.264-25.11,25.11-25.11
		c13.845,0,25.109,11.264,25.109,25.11C166.58,381.9,155.315,393.164,141.47,393.164z M141.47,359.685
		c-4.615,0-8.37,3.754-8.37,8.37c0,4.615,3.754,8.37,8.37,8.37c4.615,0,8.37-3.754,8.37-8.37S146.086,359.685,141.47,359.685z"/>
	<path style="fill:#EDEDED;" d="M419.929,447.181c-13.845,0-25.109-11.264-25.109-25.109s11.264-25.109,25.109-25.109
		s25.11,11.264,25.11,25.109S433.774,447.181,419.929,447.181z M419.929,413.702c-4.615,0-8.37,3.754-8.37,8.37
		s3.754,8.37,8.37,8.37c4.615,0,8.37-3.754,8.37-8.37S424.544,413.702,419.929,413.702z"/>
	<path style="fill:#EDEDED;" d="M368.183,359.685c-13.845,0-25.109-11.264-25.109-25.11c0-13.845,11.264-25.109,25.109-25.109
		s25.109,11.264,25.109,25.109C393.292,348.42,382.028,359.685,368.183,359.685z M368.183,326.205c-4.615,0-8.37,3.754-8.37,8.37
		c0,4.615,3.754,8.37,8.37,8.37s8.37-3.754,8.37-8.37C376.553,329.96,372.798,326.205,368.183,326.205z"/>
	<path style="fill:#EDEDED;" d="M121.614,322.772c-13.845,0-25.11-11.264-25.11-25.109s11.264-25.11,25.11-25.11
		c13.845,0,25.109,11.264,25.109,25.11C146.723,311.508,135.459,322.772,121.614,322.772z M121.614,289.293
		c-4.615,0-8.37,3.754-8.37,8.37c0,4.615,3.754,8.37,8.37,8.37c4.615,0,8.37-3.754,8.37-8.37
		C129.983,293.047,126.229,289.293,121.614,289.293z"/>
	<path style="fill:#EDEDED;" d="M419.929,119.191c-13.845,0-25.109-11.264-25.109-25.11s11.264-25.11,25.109-25.11
		s25.11,11.264,25.11,25.11S433.774,119.191,419.929,119.191z M419.929,85.712c-4.615,0-8.37,3.754-8.37,8.37
		c0,4.615,3.754,8.37,8.37,8.37c4.615,0,8.37-3.754,8.37-8.37C428.298,89.466,424.544,85.712,419.929,85.712z"/>
</g>
<g>
</g>
<g>
</g>
<g>
</g>
<g>
</g>
<g>
</g>
<g>
</g>
<g>
</g>
<g>
</g>
<g>
</g>
<g>
</g>
<g>
</g>
<g>
</g>
<g>
</g>
<g>
</g>
<g>
</g>
</svg>
