<?xml version="1.0" encoding="iso-8859-1"?>
<!-- Generator: Adobe Illustrator 19.0.0, SVG Export Plug-In . SVG Version: 6.00 Build 0)  -->
<svg version="1.1" id="Capa_1" xmlns="http://www.w3.org/2000/svg" xmlns:xlink="http://www.w3.org/1999/xlink" x="0px" y="0px"
	 viewBox="0 0 416 416" style="enable-background:new 0 0 416 416;" xml:space="preserve">
<path style="fill:#CCCCCC;" d="M328,384h-72v-16h72c17.673,0,32-14.327,32-32V176h16v160C375.974,362.499,354.499,383.974,328,384z"
	/>
<rect y="8" style="fill:#666666;" width="272" height="400"/>
<rect x="144" y="8" style="fill:#B3B3B3;" width="128" height="64"/>
<rect x="176" y="8" style="fill:#808080;" width="64" height="32"/>
<rect y="8" style="fill:#29ABE2;" width="144" height="64"/>
<circle style="fill:#FBB03B;" cx="136" cy="248" r="88"/>
<path style="fill:#29ABE2;" d="M128,280l-74.92,40.864c-8.064,4.4-13.081,12.853-13.08,22.04l0,0
	c0.004,13.858,11.238,25.092,25.096,25.096l0,0c9.187,0.001,17.64-5.016,22.04-13.08L128,280z"/>
<g>
	<path style="fill:#F7931E;" d="M88,248H72c0.04-35.33,28.67-63.96,64-64v16C109.501,200.026,88.026,221.501,88,248z"/>
	<path style="fill:#F7931E;" d="M154.28,309.344l-4.56-15.336C170.01,287.863,183.916,269.2,184,248h16
		C199.884,276.269,181.337,301.154,154.28,309.344z"/>
</g>
<rect x="24" y="32" style="fill:#0071BC;" width="16" height="16"/>
<g>
	<rect x="232" y="96" style="fill:#999999;" width="16" height="16"/>
	<rect x="232" y="368" style="fill:#999999;" width="16" height="16"/>
	<rect x="24" y="96" style="fill:#999999;" width="16" height="16"/>
</g>
<rect x="56" y="32" style="fill:#0071BC;" width="16" height="16"/>
<rect x="128" y="240" style="fill:#F15A24;" width="16" height="16"/>
<rect x="336" y="8" style="fill:#B3B3B3;" width="64" height="72"/>
<polygon style="fill:#29ABE2;" points="416,72 320,72 328,192 408,192 "/>
<rect x="360" y="32" style="fill:#808080;" width="16" height="16"/>
<polygon style="fill:#0071BC;" points="408,192 410.136,160 325.864,160 328,192 "/>
<g>
</g>
<g>
</g>
<g>
</g>
<g>
</g>
<g>
</g>
<g>
</g>
<g>
</g>
<g>
</g>
<g>
</g>
<g>
</g>
<g>
</g>
<g>
</g>
<g>
</g>
<g>
</g>
<g>
</g>
</svg>
