<?xml version="1.0" encoding="iso-8859-1"?>
<!-- Generator: Adobe Illustrator 19.0.0, SVG Export Plug-In . SVG Version: 6.00 Build 0)  -->
<svg version="1.1" id="Capa_1" xmlns="http://www.w3.org/2000/svg" xmlns:xlink="http://www.w3.org/1999/xlink" x="0px" y="0px"
	 viewBox="0 0 468.318 468.318" style="enable-background:new 0 0 468.318 468.318;" xml:space="preserve">
<path style="fill:#44C4A1;" d="M353.664,41.48c6.155,6.155,16.145,6.156,22.3,0l10.08,10.08c-6.155,6.156-6.154,16.145,0.002,22.301
	c6.199,6.199,16.145,6.156,22.3,0l59.946,59.944L133.823,468.318l-59.946-59.944c6.154-6.155,6.198-16.102-0.002-22.301
	c-6.156-6.156-16.146-6.155-22.3,0l-10.08-10.08c6.154-6.155,6.153-16.146-0.002-22.301c-6.156-6.156-16.146-6.155-22.3,0
	L0.014,334.513L334.483,0l19.179,19.179C347.508,25.335,347.508,35.324,353.664,41.48z"/>
<rect x="49.711" y="265.254" transform="matrix(-0.7071 0.7071 -0.7071 -0.7071 691.0196 286.2187)" style="fill:#3EA69B;" width="473.04" height="41.947"/>
<g>
	<path style="fill:#FCD462;" d="M177.192,424.943l-13.379,13.381l-9.356-9.356c-3.658-3.657-3.658-9.587-0.001-13.245l0.134-0.134
		c3.657-3.658,9.588-3.658,13.246,0L177.192,424.943z"/>
	<path style="fill:#FCD462;" d="M214.493,387.637l-13.379,13.381l-9.356-9.356c-3.658-3.657-3.658-9.587-0.001-13.245l0.134-0.134
		c3.657-3.658,9.588-3.658,13.246-0.001L214.493,387.637z"/>
	<path style="fill:#FCD462;" d="M251.794,350.331l-13.379,13.381l-9.356-9.356c-3.658-3.657-3.658-9.587-0.001-13.245l0.134-0.134
		c3.657-3.658,9.588-3.658,13.246,0L251.794,350.331z"/>
	<path style="fill:#FCD462;" d="M289.096,313.025l-13.379,13.381l-9.356-9.356c-3.658-3.657-3.658-9.587-0.001-13.245l0.134-0.134
		c3.657-3.658,9.588-3.658,13.246,0L289.096,313.025z"/>
	<path style="fill:#FCD462;" d="M326.397,275.718l-13.379,13.381l-9.356-9.356c-3.658-3.657-3.658-9.587-0.001-13.245l0.134-0.134
		c3.657-3.658,9.588-3.658,13.246,0L326.397,275.718z"/>
	<path style="fill:#FCD462;" d="M363.698,238.412l-13.379,13.381l-9.356-9.356c-3.658-3.657-3.658-9.587-0.001-13.245l0.134-0.134
		c3.657-3.658,9.588-3.658,13.246,0L363.698,238.412z"/>
	<path style="fill:#FCD462;" d="M401,201.106l-13.379,13.38l-9.356-9.356c-3.658-3.657-3.658-9.587-0.001-13.245l0.134-0.134
		c3.657-3.658,9.588-3.658,13.246,0L401,201.106z"/>
	<path style="fill:#FCD462;" d="M438.301,163.799l-13.379,13.381l-9.356-9.356c-3.658-3.657-3.658-9.587-0.001-13.245l0.134-0.134
		c3.657-3.658,9.588-3.658,13.246,0L438.301,163.799z"/>
</g>
<g>
	
		<rect x="112.134" y="277.456" transform="matrix(-0.7071 0.7072 -0.7072 -0.7071 430.3605 458.6167)" style="fill:#64798A;" width="16.109" height="81.982"/>
	
		<rect x="134.428" y="255.194" transform="matrix(-0.7071 0.7072 -0.7072 -0.7071 452.6753 404.8499)" style="fill:#64798A;" width="16.109" height="81.982"/>
	
		<rect x="200.117" y="189.483" transform="matrix(-0.7071 0.7072 -0.7072 -0.7071 518.343 246.225)" style="fill:#64798A;" width="16.109" height="81.982"/>
	
		<rect x="222.397" y="167.185" transform="matrix(-0.7071 0.7072 -0.7072 -0.7071 540.6063 192.4051)" style="fill:#64798A;" width="16.109" height="81.982"/>
	
		<rect x="288.098" y="101.492" transform="matrix(-0.7071 0.7072 -0.7072 -0.7071 606.3079 33.8031)" style="fill:#64798A;" width="16.109" height="81.982"/>
	
		<rect x="310.388" y="79.174" transform="matrix(-0.7071 0.7072 -0.7072 -0.7071 628.5767 -20.0586)" style="fill:#64798A;" width="16.109" height="81.982"/>
</g>
<g>
	
		<rect x="97.574" y="273.559" transform="matrix(-0.7071 0.7072 -0.7072 -0.7071 441.5891 431.7737)" style="fill:#3A556A;" width="67.578" height="67.584"/>
	
		<rect x="185.505" y="185.537" transform="matrix(-0.7071 0.7072 -0.7072 -0.7071 529.4473 219.3342)" style="fill:#3A556A;" width="67.578" height="67.584"/>
	
		<rect x="273.493" y="97.534" transform="matrix(-0.7071 0.7072 -0.7072 -0.7071 617.4158 6.8873)" style="fill:#3A556A;" width="67.578" height="67.584"/>
</g>
<g>
</g>
<g>
</g>
<g>
</g>
<g>
</g>
<g>
</g>
<g>
</g>
<g>
</g>
<g>
</g>
<g>
</g>
<g>
</g>
<g>
</g>
<g>
</g>
<g>
</g>
<g>
</g>
<g>
</g>
</svg>
